
Format : AVI
Format/Info : Audio Video Interleave
File size : 651 MiB
Duration : 1h 24mn
Overall bit rate : 1 083 Kbps
Writing application : MEncoder SVN-r29352(20090610-gcc4.3.3)
Writing library : MPlayer

Video
ID : 0
Format : MPEG-4 Visual
Format profile : AdvancedSimple@L5
Format settings, BVOP : Yes
Format settings, QPel : No
Format settings, GMC : No warppoints
Format settings, Matrix : Default (H.263)
Codec ID : XVID
Codec ID/Hint : XviD
Duration : 1h 24mn
Bit rate : 942 Kbps
Width : 640 pixels
Height : 360 pixels
Display aspect ratio : 16:9
Frame rate : 25.000 fps
Resolution : 24 bits
Colorimetry : 4:2:0
Scan type : Progressive
Bits/(Pixel*Frame) : 0.164
Stream size : 567 MiB (87%)
Writing library : XviD 1.2.1 (UTC 2008-12-04)

Audio
ID : 1
Format : MPEG Audio
Format version : Version 1
Format profile : Layer 3
Codec ID : 55
Codec ID/Hint : MP3
Duration : 1h 24mn
Bit rate mode : Constant
Bit rate : 128 Kbps
Channel(s) : 2 channels
Sampling rate : 44.1 KHz
Resolution : 16 bits
Video delay : 40ms
Stream size : 77.0 MiB (12%)
Alignment : Aligned on interleaves
Interleave, duration : 26 ms (0.65 video frame)
Interleave, preload duration : 522 ms
Writing library : LAME3.98

In order to avoid a ghostly figure in the road, high school senior Brent Mitchell wraps his car around a tree, killing his father. Constantly confronted by his mother's emotional collapse after the accident, Brent escapes into a marijuana fueled world of loud metal music to block the pain and guilt. Dejected and out of sorts, he has a shot at happiness with his girlfriend Holly, a grounded, caring girl with drop dead good looks
 
http://www.imdb.com/title/tt1316536/

screen shots
 
http://img686.imageshack.us/img686/7430/lovedonesxvidviceavisna.jpg 
http://img266.imageshack.us/img266/7430/lovedonesxvidviceavisna.jpg 
http://img832.imageshack.us/img832/7430/lovedonesxvidviceavisna.jpg 
http://img693.imageshack.us/img693/7430/lovedonesxvidviceavisna.jpg
 
http://img834.imageshack.us/img834/3941/lovedonesxvidviceavithu.jpg